<svg xmlns="http://www.w3.org/2000/svg" width="60" height="60" viewBox="0 0 60 60">
    <g fill="none" fill-rule="evenodd">
        <rect width="59" height="59" x=".5" y=".5" fill="#FFF" stroke="#CACACA" rx="29.5"/>
        <g fill-rule="nonzero">
            <path fill="#FFF" d="M9.976 1.49C6.56 2.659 3.65 5.214 2.029 8.449c-.565 1.116-.972 2.3-1.221 3.528-.618 3.046-.189 6.295 1.214 9.07.912 1.81 2.224 3.423 3.807 4.682 1.5 1.191 3.242 2.08 5.097 2.57 2.337.626 4.825.611 7.177.076 2.126-.49 4.14-1.508 5.745-2.985 1.696-1.561 2.91-3.612 3.55-5.82.702-2.406.793-4.977.355-7.45H14.56v5.474h7.644c-.294 1.749-1.334 3.347-2.804 4.335-.928.626-1.99 1.025-3.091 1.221-1.101.189-2.247.211-3.348-.007-1.123-.226-2.186-.694-3.121-1.35-1.493-1.048-2.631-2.578-3.212-4.305-.595-1.756-.603-3.709 0-5.458.422-1.237 1.116-2.375 2.036-3.31 1.13-1.16 2.6-1.99 4.192-2.33 1.357-.286 2.79-.233 4.116.166 1.131.34 2.171.965 3.023 1.78l2.579-2.579c.452-.46.927-.905 1.364-1.38-1.304-1.206-2.842-2.178-4.516-2.797C16.407.465 13.014.442 9.976 1.49z" transform="translate(16.25 15)"/>
            <path fill="#EA4335" d="M9.976 1.49c3.03-1.048 6.43-1.025 9.446.083 1.674.618 3.205 1.583 4.516 2.797-.437.475-.912.92-1.364 1.38l-2.579 2.578c-.852-.814-1.892-1.432-3.023-1.78-1.327-.399-2.76-.46-4.116-.165-1.584.34-3.054 1.169-4.192 2.33-.92.927-1.614 2.073-2.036 3.31-1.53-1.192-3.06-2.376-4.599-3.567C3.65 5.214 6.56 2.66 9.976 1.49z" transform="translate(16.25 15)"/>
            <path fill="#FBBC05" d="M.815 11.97c.25-1.222.656-2.413 1.222-3.529 1.53 1.191 3.06 2.375 4.599 3.566-.603 1.757-.603 3.71 0 5.459-1.53 1.19-3.061 2.382-4.592 3.566C.627 18.265.197 15.015.815 11.97z" transform="translate(16.25 15)"/>
            <path fill="#4285F4" d="M14.56 12.113h13.193c.438 2.465.34 5.036-.354 7.449-.64 2.209-1.855 4.26-3.551 5.82l-4.456-3.46c1.47-.988 2.51-2.587 2.805-4.336h-7.645c.008-1.824.008-3.649.008-5.473z" transform="translate(16.25 15)"/>
            <path fill="#34A853" d="M2.03 21.04c1.53-1.184 3.06-2.376 4.59-3.567.589 1.727 1.72 3.257 3.212 4.305.935.656 2.006 1.124 3.122 1.35 1.1.226 2.239.196 3.347.007 1.1-.196 2.164-.595 3.091-1.221l4.456 3.46c-1.606 1.486-3.619 2.496-5.745 2.986-2.352.535-4.84.55-7.177-.075-1.855-.49-3.597-1.373-5.097-2.571-1.576-1.252-2.888-2.865-3.8-4.675z" transform="translate(16.25 15)"/>
        </g>
    </g>
</svg>
