<svg xmlns="http://www.w3.org/2000/svg" width="48" height="48" viewBox="0 0 48 48">
    <g fill="none">
        <circle cx="24" cy="24" r="23" fill="#FFF" stroke="#222" stroke-opacity=".05" stroke-width="2"/>
        <g>
            <path d="M0 0H32V32H0z" transform="translate(8 8)"/>
            <g>
                <path fill="#FBBB00" d="M6.383 17.404L5.38 21.147l-3.664.077C.621 19.194 0 16.87 0 14.4c0-2.388.58-4.64 1.61-6.622l3.263.598 1.429 3.242c-.3.872-.462 1.808-.462 2.782 0 1.057.191 2.07.543 3.004z" transform="translate(8 8) translate(1.6 1.6)"/>
                <path fill="#518EF8" d="M28.548 11.71c.166.871.252 1.77.252 2.69 0 1.03-.108 2.037-.315 3.007-.7 3.3-2.533 6.183-5.07 8.223v-.001l-4.11-.21-.581-3.63c1.684-.987 3-2.533 3.693-4.382h-7.7V11.71h13.832z" transform="translate(8 8) translate(1.6 1.6)"/>
                <path fill="#28B446" d="M23.414 25.629h.001C20.947 27.614 17.812 28.8 14.4 28.8c-5.484 0-10.252-3.065-12.684-7.576l4.667-3.82C7.599 20.65 10.73 22.96 14.4 22.96c1.578 0 3.056-.426 4.324-1.17l4.69 3.839z" transform="translate(8 8) translate(1.6 1.6)"/>
                <path fill="#F14336" d="M23.591 3.315l-4.665 3.82C17.614 6.313 16.062 5.84 14.4 5.84c-3.754 0-6.943 2.416-8.098 5.778l-4.691-3.84C4.006 3.157 8.834 0 14.4 0c3.494 0 6.698 1.245 9.191 3.315z" transform="translate(8 8) translate(1.6 1.6)"/>
            </g>
        </g>
    </g>
</svg>
