<svg xmlns="http://www.w3.org/2000/svg" width="133" height="20" viewBox="0 0 133 20">
    <g fill="#1B1D24" fill-rule="evenodd">
        <path d="M44.681 11.953c-.17-.576-.405-1.096-.699-1.545-.293-.447-.636-.837-1.018-1.16-.376-.315-.777-.581-1.194-.79-.417-.207-.843-.363-1.265-.463-.426-.1-.83-.153-1.24-.163h-7.432c-.477 0-.832-.135-1.083-.414-.26-.288-.392-.702-.392-1.232 0-.524.134-.943.398-1.245.254-.292.596-.427 1.077-.427H43.31V.145H31.833c-.57 0-1.188.107-1.838.319-.66.215-1.282.567-1.845 1.047-.566.483-1.04 1.114-1.412 1.873-.375.767-.564 1.71-.564 2.802 0 1.09.19 2.036.564 2.808.37.765.847 1.395 1.414 1.875.563.475 1.184.825 1.843 1.039.65.212 1.267.319 1.838.319h7.432c.233 0 .444.04.628.119.177.076.33.185.452.323.127.144.228.32.298.522.073.21.11.448.11.708 0 .522-.133.935-.394 1.227-.251.282-.609.419-1.094.419H26.323v4.368h12.942c.38 0 .79-.048 1.215-.142.428-.095.854-.244 1.265-.442.414-.2.818-.458 1.2-.768.394-.319.742-.71 1.032-1.161.289-.446.523-.965.697-1.545.175-.58.263-1.239.263-1.956 0-.717-.086-1.372-.256-1.946M84.209 11.953c-.17-.576-.406-1.096-.7-1.545-.292-.447-.636-.837-1.018-1.16-.376-.315-.777-.581-1.194-.79-.417-.207-.843-.363-1.265-.463-.426-.1-.83-.153-1.24-.163H71.36c-.477 0-.832-.135-1.083-.414-.26-.288-.392-.702-.392-1.232 0-.524.134-.943.398-1.245.254-.292.596-.427 1.077-.427h11.476V.145H71.36c-.57 0-1.188.107-1.838.319-.66.215-1.281.567-1.844 1.047-.566.483-1.041 1.114-1.413 1.873-.374.767-.564 1.71-.564 2.802 0 1.09.19 2.036.564 2.808.371.765.847 1.395 1.415 1.875.563.475 1.183.825 1.842 1.039.65.212 1.268.319 1.838.319h7.433c.232 0 .444.04.627.119.178.076.33.185.452.323.128.144.228.32.299.522.072.21.109.448.109.708 0 .522-.133.935-.394 1.227-.25.282-.608.419-1.093.419H65.85v4.368h12.943c.38 0 .789-.048 1.214-.142.429-.095.855-.244 1.266-.442.414-.2.817-.458 1.199-.768.395-.319.742-.71 1.033-1.161.288-.446.522-.965.696-1.545.175-.58.263-1.239.263-1.956 0-.717-.085-1.372-.255-1.946M112.69 9.19c-.11-.257-.261-.487-.452-.685-.193-.2-.424-.36-.687-.475-.266-.117-.556-.176-.861-.176H99.562v4.36h8.987v3.322h-10.04c-.307 0-.528-.073-.677-.222-.149-.15-.22-.372-.22-.68V5.46c0-.33.071-.57.214-.714.144-.145.368-.215.683-.215H112.7V.197H98.51c-.627 0-1.199.083-1.702.245-.502.162-.953.383-1.34.657-.385.274-.722.593-1 .95-.274.352-.5.726-.67 1.111-.17.384-.295.777-.374 1.168-.08.39-.12.763-.12 1.107v9.198c0 .63.081 1.207.242 1.716.16.51.38.966.654 1.356.272.39.59.727.947 1.003.348.27.719.493 1.102.665.38.17.77.296 1.16.376.389.08.759.122 1.1.122h12.18c.304 0 .59-.057.854-.167.264-.11.495-.265.69-.46.194-.196.348-.43.458-.695.11-.266.166-.555.166-.859v-7.657c0-.296-.057-.58-.168-.842M56.159 19.933h-4.894V4.52h-6.284V.121h17.433c0 2.43-1.958 4.4-4.373 4.4H56.16v15.412zM6.867 19.812h4.893V8.802c0-2.142 1.726-3.878 3.855-3.878h.1c2.129 0 3.855 1.736 3.855 3.878v11.01h4.894V7.758c0-4.285-3.452-7.758-7.71-7.758h-2.177c-4.258 0-7.71 3.473-7.71 7.758v12.054zM115.29 19.812h4.894V8.802c0-2.142 1.726-3.878 3.855-3.878h.1c2.129 0 3.855 1.736 3.855 3.878v11.01h4.894V7.758c0-4.285-3.452-7.758-7.71-7.758H123c-4.259 0-7.71 3.473-7.71 7.758v12.054zM0 19.933V.145c2.702 0 4.894 2.932 4.894 6.55v13.238H0zM86.106 19.933V.145c2.702 0 4.893 2.932 4.893 6.55v13.238h-4.893z"/>
    </g>
</svg>
