<svg xmlns="http://www.w3.org/2000/svg" xmlns:xlink="http://www.w3.org/1999/xlink" width="142" height="20" viewBox="0 0 142 20">
    <defs>
        <path id="rbkqk7a6ta" d="M6 0h8c3.314 0 6 2.686 6 6v8c0 3.314-2.686 6-6 6H6c-3.314 0-6-2.686-6-6V6c0-3.314 2.686-6 6-6z"/>
    </defs>
    <g fill="none" fill-rule="evenodd">
        <path fill="#275AE6" d="M67.578 10.38c-.253-.385-.55-.72-.88-.998-.324-.27-.67-.5-1.031-.68-.36-.177-.728-.312-1.093-.398-.368-.086-.717-.131-1.072-.14h-5.656c-.413 0-.72-.116-.936-.356-.225-.247-.339-.604-.339-1.06 0-.45.116-.81.344-1.07.22-.251.515-.367.93-.367h9.918V1.553h-9.917c-.493 0-1.027.092-1.589.275-.57.185-1.107.487-1.594.9-.49.415-.899.958-1.22 1.61-.324.66-.487 1.472-.487 2.41 0 .938.164 1.752.487 2.416.32.658.732 1.2 1.222 1.612.486.409 1.023.71 1.592.894.562.182 1.095.274 1.589.274h5.656c.202 0 .384.034.543.102.153.066.285.16.39.278.11.124.198.275.258.45.063.18.095.384.095.608 0 .449-.115.804-.34 1.055-.217.243-.526.36-.946.36H53.084v3.757h10.418c.329 0 .683-.041 1.05-.122.37-.082.738-.21 1.093-.38.358-.172.707-.394 1.037-.66.34-.275.642-.611.892-.999.25-.384.452-.83.602-1.329.152-.499.228-1.065.228-1.682s-.075-1.18-.222-1.674c-.146-.495-.35-.942-.604-1.328zm31.756 0c-.253-.385-.55-.72-.88-.998-.325-.27-.671-.5-1.032-.68-.36-.177-.728-.312-1.093-.398-.368-.086-.717-.131-1.071-.14H89.6c-.412 0-.72-.116-.936-.356-.225-.247-.339-.604-.339-1.06 0-.45.116-.81.344-1.07.22-.251.515-.367.93-.367h9.917V1.553h-9.916c-.493 0-1.027.092-1.589.275-.57.185-1.106.487-1.593.9-.49.415-.9.958-1.221 1.61-.323.66-.487 1.472-.487 2.41 0 .938.164 1.752.487 2.416.32.658.732 1.2 1.223 1.612.486.409 1.022.71 1.591.894.562.182 1.096.274 1.589.274h5.657c.2 0 .384.034.542.102.154.066.285.16.39.278.111.124.198.275.26.45.061.18.093.384.093.608 0 .449-.115.804-.34 1.055-.216.243-.525.36-.945.36H84.84v3.757h10.42c.328 0 .681-.041 1.048-.122.371-.082.74-.21 1.094-.38.358-.172.706-.394 1.037-.66.34-.275.64-.611.892-.999.249-.384.451-.83.602-1.329.15-.499.227-1.065.227-1.682s-.074-1.18-.22-1.674c-.147-.495-.351-.942-.605-1.328zm24.893-1.048c-.095-.22-.226-.419-.391-.589-.167-.172-.366-.31-.594-.408-.23-.101-.48-.152-.744-.152h-9.615v3.75h7.765v2.857h-8.675c-.266 0-.457-.063-.585-.191-.13-.129-.19-.32-.19-.585v-7.89c0-.284.06-.49.184-.614.125-.124.318-.185.59-.185h12.263V1.598h-12.262c-.541 0-1.036.071-1.47.21-.434.14-.824.33-1.158.566-.333.235-.624.51-.864.817-.237.302-.432.624-.58.955-.146.33-.254.668-.322 1.005-.07.335-.104.656-.104.952v7.91c0 .542.07 1.038.209 1.476.138.439.328.83.565 1.166.235.336.51.626.818.863.301.232.622.424.953.572.328.146.665.254 1.002.323.336.069.656.105.95.105h10.525c.263 0 .51-.049.738-.144.229-.094.428-.227.597-.395.167-.169.3-.37.395-.598.096-.229.144-.477.144-.739v-6.585c0-.254-.05-.499-.145-.724m-44.969 9.238h-4.229V5.316h-5.43V1.533h15.064c0 2.09-1.692 3.784-3.778 3.784h-1.626V18.57zm-43.136-.104h4.15V9c0-1.843 1.463-3.336 3.268-3.336h.085c1.805 0 3.269 1.493 3.269 3.336v9.468h4.15V8.101c0-3.686-2.927-6.672-6.538-6.672h-1.846c-3.61 0-6.538 2.986-6.538 6.672v10.366zm90.1 0h4.23V9c0-1.843 1.491-3.336 3.331-3.336h.086c1.84 0 3.332 1.493 3.332 3.336v9.468h4.229V8.101c0-3.686-2.983-6.672-6.663-6.672h-1.882c-3.68 0-6.662 2.986-6.662 6.672v10.366zM30 18.571V1.553c2.335 0 4.229 2.522 4.229 5.633v11.385H30zm71.353 0V1.553c2.335 0 4.229 2.522 4.229 5.633v11.385h-4.229z"/>
        <mask id="zx7pl2qq4b" fill="#fff">
            <use xlink:href="#rbkqk7a6ta"/>
        </mask>
        <use fill="#275AE6" xlink:href="#rbkqk7a6ta"/>
        <path fill="#FFF" d="M0 71.429V5.714c9.465 0 17.143 9.737 17.143 21.752V71.43H0z" mask="url(#zx7pl2qq4b)" opacity=".801"/>
    </g>
</svg>
